# xmcd
#
# Track frame offsets: 
#        150
#        17136
#        31529
#        47718
#        66473
#        84727
#        99613
#        116905
#        133899
#        155963
#
# Disc length: 2283 seconds
#
# Revision: 0
# Processed by: cddbd v1.5.2PL0 Copyright (c) Steve Scherf et al.
# Submitted via: ExactAudioCopy v1.0b4
#
DISCID=8e08e90a
DTITLE=Willie May - Moon Chillun
DYEAR=2013
DGENRE=Blues
TTITLE0=Riverside Blues
TTITLE1=Geraldine
TTITLE2=Back to Glory
TTITLE3=Blues Parade
TTITLE4=Dont Know Where
TTITLE5=Jason Twisted My Arm Blues
TTITLE6=Sometimes
TTITLE7=Thirty Days
TTITLE8=On Vacation
TTITLE9=Everything is Alright
EXTD=
EXTT0=
EXTT1=
EXTT2=
EXTT3=
EXTT4=
EXTT5=
EXTT6=
EXTT7=
EXTT8=
EXTT9=
PLAYORDER=
